<svg aria-hidden="true" style="position: absolute; width: 0; height: 0; overflow: hidden;" version="1.1" xmlns="http://www.w3.org/2000/svg" xmlns:xlink="http://www.w3.org/1999/xlink">
<defs>
<symbol id="icon-arrow" viewBox="0 0 100 32">
    <path d="M81.642 26.543L92.046 16.139 81.642 5.735l2.081-4.162 14.566 14.566-14.566 14.566-2.081-4.162z"/>
    <path d="M0 14.058h92.046v4.161H0z"/>
</symbol>
<symbol id="icon-ava" viewBox="0 0 32 32">
<path d="M15.89 29.456c-7.645 0-13.842-6.197-13.842-13.842s6.197-13.842 13.842-13.842c7.645 0 13.842 6.197 13.842 13.842s-6.198 13.842-13.842 13.842zM15.89 30.994c8.495 0 15.38-6.886 15.38-15.38s-6.886-15.38-15.38-15.38c-8.495 0-15.38 6.886-15.38 15.38s6.886 15.38 15.38 15.38z"></path>
<path d="M6.662 24.558c0-0.794 0.594-1.466 1.384-1.553 5.933-0.657 9.782-0.598 15.702 0.015 0.296 0.031 0.576 0.147 0.806 0.335s0.401 0.438 0.492 0.722c0.090 0.283 0.096 0.587 0.017 0.873s-0.24 0.544-0.463 0.74c-6.987 6.090-10.979 6.006-17.446 0.006-0.315-0.292-0.492-0.707-0.492-1.137v-0.001z"></path>
<path d="M23.668 23.784c-5.873-0.608-9.666-0.665-15.539-0.015-0.395 0.044-0.699 0.381-0.699 0.79 0 0.22 0.092 0.428 0.246 0.573 3.205 2.973 5.634 4.317 8.008 4.325 2.382 0.009 4.942-1.324 8.41-4.347 0.11-0.098 0.189-0.226 0.228-0.368s0.035-0.293-0.010-0.433c-0.045-0.14-0.13-0.265-0.244-0.358s-0.253-0.151-0.4-0.166v-0.001zM7.961 22.24c5.995-0.664 9.9-0.604 15.866 0.014 0.445 0.046 0.866 0.221 1.213 0.504s0.604 0.66 0.739 1.086c0.136 0.426 0.144 0.883 0.024 1.313s-0.362 0.817-0.699 1.112c-3.518 3.067-6.448 4.737-9.426 4.726-2.986-0.011-5.787-1.709-9.048-4.736-0.234-0.217-0.42-0.481-0.547-0.773s-0.193-0.608-0.192-0.928c-0.001-0.573 0.209-1.127 0.591-1.555s0.908-0.7 1.478-0.764v0.001z"></path>
<path d="M22.042 12.538c0 1.632-0.648 3.196-1.802 4.35s-2.718 1.802-4.35 1.802c-1.632 0-3.196-0.648-4.35-1.802s-1.802-2.719-1.802-4.35c0-1.632 0.648-3.196 1.802-4.35s2.719-1.802 4.35-1.802c1.632 0 3.197 0.648 4.35 1.802s1.802 2.719 1.802 4.35z"></path>
<path d="M15.89 17.152c-1.224 0-2.397-0.486-3.263-1.351s-1.351-2.039-1.351-3.263 0.486-2.397 1.351-3.263c0.865-0.865 2.039-1.351 3.263-1.351s2.397 0.486 3.263 1.351c0.865 0.865 1.351 2.039 1.351 3.263s-0.486 2.397-1.351 3.263c-0.865 0.865-2.039 1.352-3.263 1.352zM15.89 18.69c1.632 0 3.197-0.648 4.35-1.802s1.802-2.719 1.802-4.35-0.648-3.196-1.802-4.35c-1.154-1.154-2.718-1.802-4.35-1.802s-3.196 0.648-4.35 1.802-1.802 2.719-1.802 4.35c0 1.632 0.648 3.196 1.802 4.35s2.719 1.802 4.35 1.802z"></path>
</symbol>
<symbol id="icon-Binance_logo" viewBox="0 0 158 32">
<path d="M9.757 13.213l6.117-6.106 6.12 6.109 3.559-3.553-9.679-9.663-9.676 9.66 3.559 3.553z"></path>
<path d="M7.243 15.722l-3.559-3.553-3.559 3.553 3.559 3.553 3.559-3.553z"></path>
<path d="M9.757 18.231l6.117 6.106 6.12-6.109 3.561 3.551-0.002 0.002-9.679 9.663-9.681-9.665 3.564-3.548z"></path>
<path d="M28.062 19.276l3.559-3.553-3.559-3.553-3.559 3.553 3.559 3.553z"></path>
<path d="M19.483 15.72h0.001l-3.611-3.606-3.613 3.607 0.005 0.005 3.608 3.602 3.613-3.608-0.003-0.002z"></path>
<path d="M37.17 7.619h7.741c1.921 0 3.374 0.492 4.359 1.477 0.762 0.762 1.143 1.707 1.143 2.835v0.048c0 0.476-0.059 0.897-0.178 1.262s-0.277 0.695-0.474 0.988c-0.197 0.294-0.427 0.552-0.687 0.774s-0.541 0.413-0.842 0.572c0.966 0.366 1.726 0.862 2.28 1.489s0.831 1.497 0.831 2.608v0.047c0 0.762-0.147 1.429-0.441 2.001s-0.715 1.048-1.263 1.429c-0.548 0.381-1.207 0.667-1.977 0.858s-1.624 0.286-2.56 0.286h-7.932v-16.674zM44.137 14.36c0.811 0 1.456-0.139 1.933-0.417s0.716-0.727 0.716-1.346v-0.048c0-0.556-0.207-0.98-0.62-1.274s-1.010-0.441-1.789-0.441h-3.627v3.525h3.388zM45.115 21.078c0.811 0 1.447-0.146 1.909-0.441s0.692-0.751 0.692-1.37v-0.047c0-0.556-0.215-0.996-0.644-1.322s-1.121-0.488-2.076-0.488h-4.247v3.668l4.367-0z"></path>
<path d="M55.953 7.619h3.675v16.675h-3.675v-16.675z"></path>
<path d="M65.193 7.619h3.387l7.826 10.267v-10.267h3.627v16.675h-3.125l-8.089-10.6v10.6h-3.626v-16.675z"></path>
<path d="M91.158 7.5h3.388l7.159 16.794h-3.842l-1.527-3.74h-7.063l-1.527 3.74h-3.746l7.159-16.794zM95.023 17.314l-2.219-5.407-2.219 5.407h4.438z"></path>
<path d="M105.671 7.619h3.388l7.826 10.267v-10.267h3.627v16.675h-3.125l-8.088-10.6v10.6h-3.627v-16.675z"></path>
<path d="M133.736 24.58c-1.225 0-2.362-0.223-3.412-0.667s-1.957-1.052-2.72-1.822c-0.764-0.77-1.361-1.679-1.79-2.727s-0.644-2.168-0.644-3.359v-0.047c0-1.191 0.215-2.306 0.644-3.347s1.026-1.953 1.79-2.739c0.763-0.786 1.678-1.406 2.744-1.858s2.243-0.679 3.532-0.679c0.779 0 1.49 0.064 2.135 0.191s1.228 0.302 1.754 0.524c0.525 0.223 1.010 0.492 1.456 0.81 0.444 0.318 0.858 0.667 1.24 1.048l-2.338 2.692c-0.653-0.587-1.317-1.048-1.993-1.382s-1.436-0.5-2.279-0.5c-0.7 0-1.348 0.135-1.944 0.405s-1.11 0.643-1.54 1.119c-0.429 0.476-0.763 1.028-1.002 1.656s-0.357 1.298-0.357 2.013v0.047c0 0.715 0.119 1.39 0.357 2.025s0.568 1.191 0.99 1.667c0.421 0.476 0.93 0.854 1.527 1.132s1.253 0.417 1.969 0.417c0.955 0 1.761-0.175 2.421-0.524s1.317-0.826 1.969-1.429l2.338 2.358c-0.43 0.461-0.875 0.874-1.336 1.239s-0.966 0.679-1.515 0.941c-0.548 0.262-1.15 0.461-1.801 0.595-0.653 0.135-1.384 0.203-2.195 0.203z"></path>
<path d="M144.908 7.619h12.574v3.264h-8.948v3.383h7.874v3.263h-7.874v3.502h9.067v3.263h-12.694v-16.675z"></path>
</symbol>
<symbol id="icon-bitmex" viewBox="0 0 197 32">
<path d="M17.33 0.697h18.387c-0.011 0.239-0.095 0.469-0.241 0.66-0.622 1.048-1.183 2.138-1.794 3.186-0.865 1.504-1.674 3.036-2.554 4.534-0.557 1.078-1.186 2.123-1.78 3.183-3.573 0-7.146 0-10.719 0-0.187 0-0.372 0.009-0.559 0.020-0.156 0.403-0.414 0.756-0.622 1.135-0.272 0.434-0.493 0.896-0.762 1.33-0.285 0.583-0.678 1.106-0.965 1.688-0.591 0.985-1.144 1.985-1.723 2.981-0.604 1.018-1.194 2.050-1.771 3.097-0.244 0.371-0.469 0.754-0.674 1.147-1.209 2.065-2.379 4.148-3.59 6.211-0.103 0.222-0.238 0.428-0.401 0.611-2.070-0.014-4.139 0-6.209 0-0.255 0.005-0.508 0.040-0.755 0.104 0-0.562 0.383-1.012 0.641-1.484 0.311-0.634 0.727-1.222 1.039-1.857 2.481-4.355 4.935-8.726 7.407-13.085 0.56-0.947 1.041-1.914 1.604-2.842 0.703-1.222 1.359-2.471 2.091-3.679 0.233-0.505 0.548-0.968 0.804-1.461 0.912-1.593 1.807-3.195 2.715-4.788 0.108-0.249 0.252-0.481 0.428-0.689z"></path>
<path d="M38.637 7.109c1.225-2.1 2.407-4.223 3.649-6.313h6.642c0.097 0.005 0.193 0.020 0.286 0.044-0.221 0.328-0.406 0.677-0.601 1.019-1.602 2.821-3.199 5.644-4.791 8.468-0.669 1.15-1.292 2.326-1.97 3.47l-0.067 0.023-0.012 0.143c-3.123 5.498-6.235 11-9.337 16.506-6.097 0.006-12.195 0.006-18.293 0 0.347-0.712 0.758-1.391 1.144-2.083 1.737-3.134 3.518-6.24 5.23-9.374 3.746-0.006 7.492-0.006 11.238 0 2.314-3.955 4.578-7.941 6.875-11.903h0.006z"></path>
<path d="M107.18 0.715v30.115h5.318v-21.177l9.699 13.947 9.622-14.279v21.508h5.473v-30.115h-5.887l-9.169 13.902-9.271-13.902h-5.785z"></path>
<path d="M82.308 8.483h3.475v22.602h-3.475v-22.602z"></path>
<path d="M82.010 0.109h4.073v3.792h-4.073v-3.792z"></path>
<path d="M92.423 2.006h3.63v6.477h7.158v3.157h-7.158v13.427c-0.006 0.517 0.116 1.029 0.356 1.489 0.615 1.145 2.284 2.505 6.802 0.916v2.926c0 0-4.124 2.291-7.858 0.205 0 0-1.855-0.773-2.635-3.381-0.203-0.699-0.302-1.422-0.296-2.149v-13.483l-3.061 0.050v-3.157h3.086l-0.025-6.477z"></path>
<path d="M142.894 0.715v30.319h23.082v-4.887h-17.453v-8.044h15.379v-4.811h-15.406v-7.66h17.3v-4.917h-22.902z"></path>
<path d="M168.142 0.715h6.575l7.548 10.644 7.488-10.644h6.574l-10.737 14.786 11.407 15.507h-6.925l-7.781-11.325-8.157 11.351h-6.575l11.243-15.398-10.66-14.92z"></path>
<path d="M71.674 15.304c0 0 5.084-1.883 4.773-7.304 0 0-0.042-5.214-6.024-6.823-0.995-0.262-2.020-0.391-3.050-0.385h-14.346l0.039 30.115h15.445c0 0 9.038-0.191 9.675-8.094 0 0 0.647-5.524-6.511-7.509zM56.735 3.901h9.156c7.183-0.024 6.976 4.939 6.976 4.939 0.107 5.663-6.484 5.548-6.484 5.548h-9.648v-10.487zM67.939 27.724h-11.204v-10.485h10.713c7.183-0.026 6.976 4.937 6.976 4.937 0.107 5.663-6.484 5.548-6.484 5.548z"></path>
</symbol>
<symbol id="icon-Blockchain_logo" viewBox="0 0 207 32">
<path d="M55.926 21.548v-5.059c0-2.618-2.115-4.736-4.759-4.736h-0.206c-1.028 0-2.056 0.353-2.556 0.971v-6.001c0-0.736-0.558-1.118-1.116-1.118s-1.116 0.382-1.116 1.118v18.502c0 0.706 0.558 1.059 1.116 1.059 0.499 0 0.999-0.294 1.087-0.882 0.411 0.411 1.263 0.882 2.526 0.882h0.264c2.615 0 4.759-2.118 4.759-4.736zM53.694 21.548c0 1.383-1.116 2.5-2.526 2.5h-0.264c-1.322 0-2.497-0.883-2.497-2.324v-5.471c0-1.353 1.175-2.265 2.497-2.265h0.264c1.41 0 2.526 1.118 2.526 2.5v5.059zM65.297 25.165c0-0.559-0.353-1.117-1.116-1.117-0.911-0.030-1.616-0.736-1.616-1.648v-15.678c0-0.736-0.558-1.118-1.116-1.118-0.558 0-1.116 0.382-1.116 1.118v15.678c0 2.147 1.704 3.883 3.848 3.883 0.763 0 1.116-0.559 1.116-1.118zM78.104 21.548v-5.059c0-2.618-2.114-4.736-4.729-4.736h-0.294c-2.615 0-4.729 2.118-4.729 4.736v5.059c0 2.618 2.115 4.736 4.729 4.736h0.294c2.614 0 4.729-2.118 4.729-4.736zM75.872 21.548c0 1.383-1.116 2.5-2.497 2.5h-0.265c-1.41 0-2.526-1.118-2.526-2.5v-5.059c0-1.382 1.116-2.5 2.497-2.5h0.294c1.381 0 2.497 1.118 2.497 2.5v5.059zM91.646 21.548c0-0.765-0.558-1.147-1.116-1.147-0.528 0-1.087 0.382-1.116 1.147-0.059 1.383-1.116 2.5-2.497 2.5h-0.264c-1.41 0-2.526-1.118-2.526-2.5v-5.059c0-1.382 1.116-2.5 2.497-2.5h0.293c1.381 0 2.438 1.029 2.497 2.53 0.030 0.736 0.588 1.089 1.116 1.089 0.558 0 1.116-0.383 1.116-1.118 0-2.618-2.145-4.736-4.73-4.736h-0.293c-2.585 0-4.729 2.088-4.729 4.736v5.059c0 2.618 2.115 4.736 4.729 4.736h0.293c2.615 0 4.73-2.118 4.73-4.736zM105.717 25.165c0-0.176-0.029-0.382-0.147-0.559l-4.024-7.060 3.643-3.883c0.235-0.235 0.323-0.5 0.323-0.765 0-0.589-0.5-1.147-1.145-1.147-0.264 0-0.558 0.117-0.793 0.382l-5.581 5.942v-11.354c0-0.736-0.558-1.118-1.116-1.118s-1.116 0.382-1.116 1.118v18.443c0 0.736 0.558 1.118 1.116 1.118s1.116-0.382 1.116-1.118v-3.795l1.968-2.118 3.672 6.442c0.235 0.412 0.587 0.589 0.94 0.589 0.676 0 1.145-0.53 1.145-1.118zM118.406 21.548c0-0.765-0.558-1.147-1.116-1.147-0.529 0-1.087 0.382-1.116 1.147-0.059 1.383-1.116 2.5-2.497 2.5h-0.265c-1.41 0-2.526-1.118-2.526-2.5v-5.059c0-1.382 1.116-2.5 2.497-2.5h0.294c1.38 0 2.438 1.029 2.497 2.53 0.029 0.736 0.588 1.089 1.116 1.089 0.558 0 1.116-0.383 1.116-1.118 0-2.618-2.144-4.736-4.729-4.736h-0.294c-2.585 0-4.729 2.088-4.729 4.736v5.059c0 2.618 2.116 4.736 4.729 4.736h0.294c2.615 0 4.729-2.118 4.729-4.736zM132.271 25.165v-8.677c0-2.618-2.115-4.736-4.73-4.736h-0.235c-1.028 0-2.056 0.353-2.556 0.882v-5.912c0-0.736-0.558-1.118-1.115-1.118-0.559 0-1.116 0.382-1.116 1.118v18.443c0 0.736 0.558 1.118 1.116 1.118s1.115-0.382 1.115-1.118v-8.824c0-1.53 1.323-2.353 2.674-2.353 1.292 0 2.614 0.794 2.614 2.5v8.677c0 0.736 0.558 1.118 1.116 1.118s1.116-0.382 1.116-1.118zM146.959 25.137c0-0.471-0.294-0.942-0.94-1.059-0.528-0.088-0.763-0.442-0.763-0.971v-6.825c0-2.53-1.998-4.53-4.612-4.53h-0.206c-1.557 0-3.437 0.618-4.377 2.736-0.088 0.176-0.118 0.353-0.118 0.529 0 0.618 0.559 1.029 1.116 1.029 0.382 0 0.764-0.176 0.999-0.588 0.558-0.971 1.175-1.471 2.379-1.471h0.206c1.293 0 2.379 0.647 2.379 2.382 0 0.147 0 0.383-0.088 0.5-0.705 1-7.226 0.176-7.432 4.824v0.353c0 2.736 2.35 4.236 4.729 4.236h0.264c1.204 0 2.321-0.441 3.173-1.176 0.382 0.559 0.999 1 1.997 1.147 0.059 0.029 0.147 0.029 0.206 0.029 0.704 0 1.086-0.559 1.086-1.146zM143.022 21.548c0 1.383-1.145 2.5-2.526 2.5h-0.265c-1.498 0-2.497-0.794-2.497-2.059v-0.236c0.088-2.059 3.113-1.941 5.287-2.529v2.324zM152.716 25.165v-12.295c0-0.736-0.558-1.118-1.116-1.118s-1.116 0.382-1.116 1.118v12.295c0 0.736 0.559 1.118 1.116 1.118s1.116-0.382 1.116-1.118zM167.168 25.165v-8.677c0-3.236-2.203-4.736-4.7-4.736h-0.264c-1.029 0-1.998 0.353-2.526 0.882-0.117-0.589-0.617-0.882-1.116-0.882-0.588 0-1.145 0.412-1.145 1.118v12.295c0 0.736 0.558 1.118 1.116 1.118s1.116-0.382 1.116-1.118v-8.677c0-1.382 1.146-2.5 2.526-2.5h0.265c1.41 0 2.526 1.118 2.526 2.5v8.677c0 0.736 0.559 1.118 1.116 1.118s1.087-0.382 1.087-1.118zM178.696 25.165v-12.295c0-0.736-0.558-1.118-1.116-1.118s-1.116 0.382-1.116 1.118v12.295c0 0.736 0.558 1.118 1.116 1.118s1.116-0.382 1.116-1.118zM192.824 21.548v-5.059c0-2.618-2.115-4.736-4.729-4.736h-0.294c-2.615 0-4.729 2.118-4.729 4.736v5.059c0 2.618 2.114 4.736 4.729 4.736h0.294c2.615 0 4.729-2.118 4.729-4.736zM190.593 21.548c0 1.383-1.116 2.5-2.497 2.5h-0.264c-1.411 0-2.526-1.118-2.526-2.5v-5.059c0-1.382 1.115-2.5 2.497-2.5h0.294c1.381 0 2.497 1.118 2.497 2.5v5.059z"></path>
<path d="M24.054 15.226c-0.68 0-1.233 0.554-1.233 1.235s0.553 1.235 1.233 1.235c0.68 0 1.234-0.554 1.234-1.235s-0.553-1.235-1.234-1.235z"></path>
<path d="M29.756 11.8c-0.68 0-1.233 0.554-1.233 1.235s0.553 1.235 1.233 1.235c0.68 0 1.234-0.554 1.234-1.235s-0.554-1.235-1.234-1.235z"></path>
<path d="M35.459 8.373c-0.68 0-1.233 0.554-1.233 1.235s0.553 1.236 1.233 1.236c0.68 0 1.233-0.554 1.233-1.236s-0.553-1.235-1.233-1.235z"></path>
<path d="M18.351 4.947c-0.68 0-1.233 0.554-1.233 1.235s0.553 1.235 1.233 1.235c0.68 0 1.234-0.554 1.234-1.235s-0.553-1.235-1.234-1.235z"></path>
<path d="M24.054 1.52c-0.68 0-1.233 0.554-1.233 1.235s0.553 1.235 1.233 1.235c0.68 0 1.234-0.554 1.234-1.235s-0.553-1.235-1.234-1.235z"></path>
<path d="M24.054 8.373c-0.68 0-1.233 0.554-1.233 1.235s0.553 1.236 1.233 1.236 1.234-0.554 1.234-1.236c0-0.681-0.553-1.235-1.234-1.235z"></path>
<path d="M29.756 4.947c-0.68 0-1.233 0.554-1.233 1.235s0.553 1.235 1.233 1.235c0.68 0 1.234-0.554 1.234-1.235s-0.554-1.235-1.234-1.235z"></path>
<path d="M29.756 18.653c-0.68 0-1.233 0.554-1.233 1.235s0.553 1.235 1.233 1.235c0.68 0 1.234-0.554 1.234-1.235s-0.554-1.235-1.234-1.235z"></path>
<path d="M35.459 15.226c-0.68 0-1.233 0.554-1.233 1.235s0.553 1.235 1.233 1.235c0.68 0 1.233-0.554 1.233-1.235s-0.553-1.235-1.233-1.235z"></path>
<path d="M29.756 25.505c-0.68 0-1.233 0.554-1.233 1.235s0.553 1.235 1.233 1.235c0.68 0 1.234-0.554 1.234-1.235s-0.554-1.235-1.234-1.235z"></path>
<path d="M35.459 22.079c-0.68 0-1.233 0.554-1.233 1.235s0.553 1.235 1.233 1.235c0.68 0 1.233-0.554 1.233-1.235s-0.553-1.235-1.233-1.235z"></path>
<path d="M24.054 28.932c-0.68 0-1.233 0.554-1.233 1.235s0.553 1.235 1.233 1.235 1.234-0.554 1.234-1.235c0-0.681-0.553-1.235-1.234-1.235z"></path>
<path d="M24.054 22.079c-0.68 0-1.233 0.554-1.233 1.235s0.553 1.235 1.233 1.235 1.234-0.554 1.234-1.235c0-0.681-0.553-1.235-1.234-1.235z"></path>
<path d="M18.351 11.8c-0.68 0-1.233 0.554-1.233 1.235s0.553 1.235 1.233 1.235c0.68 0 1.234-0.554 1.234-1.235s-0.553-1.235-1.234-1.235z"></path>
<path d="M18.351 25.505c-0.68 0-1.233 0.554-1.233 1.235s0.553 1.235 1.233 1.235c0.68 0 1.234-0.554 1.234-1.235s-0.553-1.235-1.234-1.235z"></path>
<path d="M18.351 18.653c-0.68 0-1.233 0.554-1.233 1.235s0.553 1.235 1.233 1.235c0.68 0 1.234-0.554 1.234-1.235s-0.553-1.235-1.234-1.235z"></path>
<path d="M12.648 8.373c-0.68 0-1.233 0.554-1.233 1.235s0.553 1.236 1.233 1.236 1.234-0.554 1.234-1.236c0-0.681-0.554-1.235-1.234-1.235z"></path>
<path d="M12.648 22.079c-0.68 0-1.233 0.554-1.233 1.235s0.553 1.235 1.233 1.235 1.234-0.554 1.234-1.235c0-0.681-0.554-1.235-1.234-1.235z"></path>
<path d="M12.648 15.226c-0.68 0-1.233 0.554-1.233 1.235s0.553 1.235 1.233 1.235c0.68 0 1.234-0.554 1.234-1.235s-0.554-1.235-1.234-1.235z"></path>
<path d="M151.582 5.543c-0.619 0-1.123 0.504-1.123 1.124s0.504 1.124 1.123 1.124c0.619 0 1.122-0.504 1.122-1.124s-0.504-1.124-1.122-1.124z"></path>
<path d="M177.57 5.543c-0.619 0-1.122 0.504-1.122 1.124s0.504 1.124 1.122 1.124c0.619 0 1.122-0.504 1.122-1.124s-0.503-1.124-1.122-1.124z"></path>
<path d="M171.682 24.128c-0.615 0-1.116 0.501-1.116 1.117s0.501 1.118 1.116 1.118c0.616 0 1.116-0.502 1.116-1.118s-0.501-1.117-1.116-1.117z"></path>
</symbol>
<symbol id="icon-burger" viewBox="0 0 34 32">
<path d="M33.089 3.585c0-0.567-0.218-1.111-0.606-1.512s-0.914-0.626-1.462-0.626h-28.952c-0.548 0-1.074 0.225-1.462 0.626s-0.606 0.945-0.606 1.512c0 0.567 0.218 1.111 0.606 1.512s0.914 0.626 1.462 0.626h28.952c0.548 0 1.074-0.225 1.462-0.626s0.606-0.945 0.606-1.512z"></path>
<path d="M33.089 29.243c0-0.567-0.218-1.111-0.606-1.512s-0.914-0.626-1.462-0.626h-28.952c-0.548 0-1.074 0.225-1.462 0.626s-0.606 0.945-0.606 1.512 0.218 1.111 0.606 1.512c0.388 0.401 0.914 0.626 1.462 0.626h28.952c0.548 0 1.074-0.225 1.462-0.626s0.606-0.945 0.606-1.512z"></path>
<path d="M31.020 14.275c0.548 0 1.074 0.225 1.462 0.626s0.606 0.945 0.606 1.512c0 0.567-0.218 1.111-0.606 1.512s-0.914 0.626-1.462 0.626h-16.544c-0.548 0-1.074-0.225-1.462-0.626s-0.606-0.945-0.606-1.512c0-0.567 0.218-1.111 0.606-1.512s0.914-0.626 1.462-0.626h16.544z"></path>
</symbol>

    <symbol id="icon-cart" viewBox="0 0 32 32">
        <path fill="none" stroke="#fff" style="stroke: var(--color1, #fff)" stroke-linejoin="round" stroke-linecap="butt" stroke-miterlimit="4" stroke-width="2.3583" d="M7.157 9.851h17.616c0.357 0 0.71 0.075 1.036 0.22s0.619 0.356 0.858 0.621c0.239 0.265 0.421 0.577 0.532 0.916s0.151 0.698 0.115 1.053l-0.766 7.665c-0.063 0.63-0.358 1.215-0.828 1.64s-1.081 0.66-1.714 0.661h-12.199c-0.591 0-1.164-0.204-1.62-0.579s-0.77-0.896-0.886-1.475l-2.143-10.72z"></path>
        <path fill="none" stroke="#fff" style="stroke: var(--color1, #fff)" stroke-linejoin="round" stroke-linecap="round" stroke-miterlimit="4" stroke-width="2.3583" d="M7.157 9.85l-1.035-4.143c-0.069-0.276-0.229-0.521-0.453-0.697s-0.501-0.27-0.786-0.27h-1.558"></path>
        <path fill="none" stroke="#fff" style="stroke: var(--color1, #fff)" stroke-linejoin="round" stroke-linecap="round" stroke-miterlimit="4" stroke-width="2.3583" d="M10.99 27.734h2.554"></path>
        <path fill="none" stroke="#fff" style="stroke: var(--color1, #fff)" stroke-linejoin="round" stroke-linecap="round" stroke-miterlimit="4" stroke-width="2.3583" d="M21.209 27.734h2.554"></path>
    </symbol>
<symbol id="icon-ETH" viewBox="0 0 19 32">
<path d="M9.578 23.508l-8.964-5.316 8.958 12.692 8.968-12.692-8.963 5.316zM9.711 1.535l-8.96 14.946 8.96 5.326 8.963-5.32-8.963-14.951z"></path>
</symbol>

<symbol id="icon-Ethereum_logo" viewBox="0 0 101 32">
<path d="M33.89 15.439c-0.123-1.409-1.208-2.695-2.702-2.695s-2.559 1.286-2.702 2.695h5.404zM34.503 15.719c-0.001 0.078-0.032 0.152-0.088 0.207s-0.13 0.085-0.209 0.085h-5.721c0.143 1.409 1.207 2.695 2.702 2.695 1.023 0 1.781-0.388 2.354-1.205 0.083-0.111 0.205-0.184 0.364-0.117 0.036 0.016 0.069 0.040 0.096 0.070s0.046 0.065 0.058 0.103c0.012 0.038 0.016 0.078 0.011 0.118s-0.018 0.078-0.039 0.112c-0.572 1.001-1.719 1.491-2.845 1.491-1.924 0-3.296-1.714-3.296-3.552s1.372-3.553 3.296-3.553c1.922 0 3.313 1.711 3.317 3.546h-0.001zM41.443 12.315c0.164 0 0.287 0.143 0.287 0.286 0 0.164-0.123 0.286-0.287 0.286h-1.535v6.003c-0.002 0.075-0.032 0.147-0.086 0.2s-0.125 0.084-0.201 0.085c-0.076-0.001-0.148-0.032-0.201-0.085s-0.084-0.125-0.086-0.2v-6.003h-1.473c-0.038 0.001-0.076-0.006-0.111-0.020s-0.067-0.035-0.094-0.062c-0.027-0.027-0.048-0.059-0.062-0.094s-0.021-0.073-0.020-0.11c0-0.143 0.123-0.286 0.287-0.286h1.473v-2.197c0-0.138 0.095-0.267 0.231-0.289 0.19-0.031 0.342 0.1 0.342 0.281v2.205h1.535zM50.797 15.214v3.635c0 0.163-0.143 0.285-0.287 0.285-0.038 0.001-0.075-0.006-0.111-0.020s-0.067-0.035-0.094-0.062c-0.027-0.027-0.048-0.058-0.062-0.094s-0.021-0.073-0.020-0.11v-3.634c0-1.225-0.696-2.45-2.068-2.45-1.76 0-2.518 1.531-2.415 3.104 0 0.041 0.020 0.224 0.020 0.245v2.728c0 0.138-0.095 0.267-0.231 0.289-0.191 0.031-0.342-0.101-0.342-0.282v-11.944c0-0.143 0.123-0.285 0.286-0.285s0.287 0.143 0.287 0.285v6.758c0.492-0.878 1.371-1.47 2.395-1.47 1.678 0 2.641 1.47 2.641 3.022zM60.439 15.439c-0.123-1.409-1.208-2.695-2.702-2.695s-2.559 1.286-2.702 2.695h5.404zM61.052 15.719c-0.001 0.078-0.032 0.152-0.088 0.207s-0.13 0.085-0.209 0.085h-5.721c0.143 1.409 1.207 2.695 2.702 2.695 1.024 0 1.781-0.388 2.355-1.205 0.083-0.111 0.205-0.184 0.364-0.117 0.036 0.016 0.069 0.040 0.095 0.070s0.047 0.065 0.059 0.103c0.012 0.038 0.015 0.078 0.011 0.118s-0.018 0.078-0.039 0.112c-0.573 1.001-1.719 1.491-2.845 1.491-1.924 0-3.295-1.714-3.295-3.552s1.371-3.553 3.295-3.553c1.922 0 3.313 1.711 3.316 3.546h-0.001zM68.073 12.581c0 0.184-0.102 0.286-0.266 0.306-1.678 0.245-2.436 1.613-2.436 3.205v2.729c0 0.138-0.095 0.266-0.232 0.289-0.19 0.031-0.342-0.101-0.342-0.282v-6.22c0-0.138 0.094-0.266 0.231-0.289 0.191-0.031 0.343 0.101 0.343 0.282v1.266c0.471-0.797 1.412-1.551 2.395-1.551 0.143 0 0.307 0.102 0.307 0.265zM76.855 15.439c-0.123-1.409-1.208-2.695-2.702-2.695s-2.558 1.286-2.702 2.695h5.404zM77.469 15.719c-0.001 0.078-0.033 0.152-0.088 0.207s-0.13 0.085-0.208 0.085h-5.721c0.143 1.409 1.208 2.695 2.702 2.695 1.023 0 1.781-0.388 2.354-1.205 0.084-0.111 0.206-0.184 0.365-0.117 0.042 0.018 0.079 0.046 0.107 0.082s0.047 0.078 0.055 0.123c0.013 0.068 0 0.138-0.036 0.197-0.573 1-1.719 1.49-2.845 1.49-1.924 0-3.295-1.715-3.295-3.553 0-1.837 1.371-3.552 3.295-3.552 1.922 0 3.313 1.711 3.317 3.546h-0.001zM86.7 12.653v6.237c0 0.164-0.143 0.285-0.286 0.285-0.038 0.001-0.076-0.006-0.111-0.020s-0.067-0.035-0.094-0.062c-0.027-0.027-0.047-0.059-0.062-0.094s-0.021-0.073-0.020-0.11v-1.184c-0.471 0.939-1.31 1.613-2.375 1.613-1.699 0-2.64-1.47-2.64-3.022v-3.654c0-0.143 0.122-0.287 0.286-0.287s0.287 0.143 0.287 0.286v3.654c0 1.225 0.696 2.45 2.067 2.45 1.924 0 2.375-1.797 2.375-3.778v-2.327c0.001-0.044 0.011-0.088 0.031-0.128s0.050-0.074 0.085-0.1 0.077-0.044 0.121-0.052c0.044-0.008 0.089-0.006 0.132 0.006 0.060 0.019 0.113 0.057 0.149 0.109s0.056 0.113 0.055 0.176zM101.172 15.194v3.654c0 0.164-0.143 0.286-0.286 0.286-0.038 0.001-0.076-0.006-0.111-0.020s-0.067-0.035-0.094-0.062c-0.027-0.027-0.047-0.059-0.062-0.094s-0.021-0.073-0.020-0.11v-3.654c0-1.225-0.696-2.429-2.068-2.429-1.719 0-2.374 1.837-2.374 3.266v2.817c0 0.163-0.143 0.285-0.287 0.285-0.038 0.001-0.076-0.006-0.111-0.020s-0.067-0.035-0.094-0.062c-0.027-0.027-0.048-0.059-0.062-0.094s-0.021-0.073-0.020-0.11v-3.654c0-1.225-0.696-2.429-2.068-2.429-1.74 0-2.456 1.368-2.395 3.185 0 0.041 0.021 0.123 0 0.143v2.75c0 0.138-0.094 0.265-0.231 0.288-0.191 0.031-0.342-0.101-0.342-0.281v-6.24c0-0.138 0.094-0.267 0.231-0.289 0.19-0.031 0.342 0.101 0.342 0.282v1.041c0.492-0.877 1.372-1.449 2.396-1.449 1.166 0 2.067 0.735 2.435 1.817 0.471-1.062 1.391-1.817 2.579-1.817 1.678 0 2.641 1.45 2.641 3.002z"></path>
<path d="M0.509 16.327l9.559 5.636v-21.456l-9.559 15.82z"></path>
<path d="M10.069 0.508v21.456l9.559-5.636-9.559-15.82z"></path>
<path d="M10.069 11.994l-9.559 4.333 9.559 5.636 9.559-5.635-9.559-4.334z"></path>
<path d="M10.069 11.994l-9.559 4.333 9.559 5.636 0.001-9.969z"></path>
<path d="M0.509 18.135l9.559 13.436v-7.803l-9.559-5.633z"></path>
<path d="M10.069 23.768v7.803l9.565-13.436-9.565 5.633z"></path>
</symbol>
<symbol id="icon-inst" viewBox="0 0 32 32">
<path   opacity="0.1" d="M1.039 15.911c0-8.373 6.788-15.161 15.161-15.161s15.161 6.788 15.161 15.161c0 8.373-6.788 15.161-15.161 15.161s-15.161-6.788-15.161-15.161z"></path>
<path   d="M16.201 7.825c-2.196 0-2.472 0.010-3.334 0.049-0.861 0.039-1.448 0.176-1.962 0.376-0.532 0.207-0.983 0.483-1.432 0.932s-0.726 0.901-0.933 1.432c-0.2 0.514-0.337 1.102-0.376 1.962-0.039 0.863-0.049 1.138-0.049 3.334s0.010 2.471 0.049 3.333c0.040 0.861 0.176 1.448 0.376 1.962 0.207 0.532 0.483 0.983 0.933 1.432s0.9 0.727 1.432 0.933c0.514 0.2 1.102 0.336 1.963 0.376 0.863 0.039 1.138 0.049 3.334 0.049s2.471-0.010 3.333-0.049c0.861-0.039 1.449-0.176 1.963-0.376 0.532-0.206 0.982-0.483 1.431-0.933s0.726-0.9 0.933-1.432c0.199-0.514 0.335-1.102 0.376-1.962 0.039-0.863 0.049-1.137 0.049-3.333s-0.010-2.472-0.049-3.334c-0.040-0.861-0.177-1.448-0.376-1.963-0.207-0.532-0.483-0.983-0.933-1.432s-0.9-0.726-1.432-0.932c-0.516-0.2-1.103-0.336-1.964-0.376-0.862-0.039-1.137-0.049-3.334-0.049h0.003zM15.475 9.282c0.215-0 0.455 0 0.725 0 2.159 0 2.415 0.008 3.267 0.046 0.788 0.036 1.216 0.168 1.501 0.278 0.377 0.147 0.646 0.322 0.929 0.605s0.458 0.553 0.605 0.93c0.111 0.285 0.243 0.713 0.279 1.501 0.039 0.852 0.047 1.108 0.047 3.266s-0.008 2.414-0.047 3.266c-0.036 0.788-0.168 1.216-0.279 1.501-0.146 0.377-0.322 0.646-0.605 0.929s-0.552 0.458-0.929 0.605c-0.285 0.111-0.713 0.243-1.501 0.279-0.852 0.039-1.108 0.047-3.267 0.047s-2.415-0.008-3.267-0.047c-0.788-0.036-1.216-0.168-1.502-0.279-0.377-0.147-0.647-0.322-0.93-0.605s-0.458-0.552-0.605-0.929c-0.111-0.285-0.243-0.713-0.278-1.501-0.039-0.852-0.046-1.108-0.046-3.268s0.008-2.414 0.046-3.266c0.036-0.788 0.168-1.216 0.278-1.501 0.147-0.377 0.322-0.647 0.605-0.93s0.553-0.458 0.93-0.605c0.285-0.111 0.713-0.243 1.502-0.279 0.746-0.034 1.035-0.044 2.542-0.046v0.002zM20.517 10.625c-0.536 0-0.97 0.434-0.97 0.97s0.435 0.97 0.97 0.97c0.536 0 0.97-0.434 0.97-0.97s-0.434-0.97-0.97-0.97zM16.201 11.758c-2.293 0-4.152 1.859-4.152 4.152s1.859 4.152 4.152 4.152c2.293 0 4.152-1.858 4.152-4.152s-1.858-4.152-4.152-4.152zM16.201 13.216c1.488 0 2.695 1.207 2.695 2.695s-1.207 2.695-2.695 2.695c-1.489 0-2.695-1.207-2.695-2.695s1.207-2.695 2.695-2.695z"></path>
</symbol>
<symbol id="icon-play" viewBox="0 0 22 32">
<path d="M1.357 1.454c-0.196-0.144-0.455-0.166-0.673-0.055s-0.353 0.336-0.353 0.581v28.682c0 0.246 0.137 0.471 0.353 0.582 0.091 0.047 0.192 0.070 0.291 0.070 0.135 0 0.269-0.042 0.381-0.126l19.326-14.341c0.166-0.123 0.263-0.319 0.263-0.526s-0.097-0.403-0.263-0.526l-19.326-14.341z"></path>
</symbol>
<symbol id="icon-Social_Icon" viewBox="0 0 31 32">
<path fill="#fff" style="fill: var(--color1, #fff)" opacity="0.1" d="M0.146 15.911c0-8.373 6.788-15.161 15.161-15.161s15.161 6.788 15.161 15.161c0 8.373-6.788 15.161-15.161 15.161s-15.161-6.788-15.161-15.161z"></path>
<path fill="#fff" style="fill: var(--color1, #fff)" d="M23.392 15.9c0 0.547-0.056 1.093-0.165 1.625-0.107 0.52-0.265 1.030-0.471 1.518-0.202 0.479-0.453 0.941-0.746 1.371-0.289 0.428-0.621 0.829-0.986 1.195-0.366 0.364-0.769 0.696-1.196 0.986-0.432 0.291-0.894 0.541-1.374 0.744-0.488 0.206-1 0.363-1.519 0.47-0.533 0.11-1.081 0.166-1.629 0.166s-1.096-0.056-1.628-0.166c-0.52-0.107-1.031-0.264-1.519-0.47-0.479-0.203-0.942-0.453-1.374-0.744-0.428-0.29-0.83-0.621-1.196-0.986-0.366-0.366-0.698-0.767-0.987-1.195-0.291-0.43-0.543-0.892-0.745-1.371-0.207-0.488-0.365-0.998-0.472-1.517-0.108-0.532-0.163-1.078-0.163-1.625s0.055-1.095 0.163-1.626c0.107-0.52 0.265-1.031 0.472-1.518 0.203-0.479 0.454-0.941 0.745-1.372 0.289-0.428 0.621-0.829 0.987-1.195 0.365-0.364 0.768-0.695 1.196-0.984 0.432-0.292 0.895-0.542 1.374-0.746 0.488-0.206 0.999-0.364 1.519-0.47 0.532-0.109 1.080-0.164 1.628-0.164s1.096 0.055 1.629 0.164c0.519 0.106 1.030 0.264 1.519 0.47 0.479 0.203 0.942 0.454 1.374 0.746 0.428 0.289 0.83 0.62 1.196 0.984 0.365 0.366 0.698 0.767 0.986 1.195 0.293 0.431 0.544 0.893 0.746 1.372 0.207 0.487 0.365 0.998 0.471 1.518 0.109 0.531 0.165 1.078 0.165 1.626zM12.36 9.663c-1.926 0.908-3.363 2.68-3.811 4.815 0.182 0.002 3.060 0.038 6.375-0.842-1.195-2.12-2.472-3.851-2.564-3.973zM15.496 14.698c-3.555 1.063-6.967 0.986-7.090 0.982-0.002 0.074-0.006 0.146-0.006 0.22 0 1.771 0.669 3.386 1.769 4.607-0.002-0.004 1.887-3.351 5.614-4.554 0.090-0.030 0.182-0.057 0.272-0.083-0.173-0.392-0.362-0.785-0.56-1.172zM19.866 10.724c-1.216-1.070-2.812-1.72-4.56-1.72-0.561 0-1.106 0.068-1.627 0.193 0.103 0.139 1.4 1.857 2.581 4.022 2.605-0.975 3.589-2.47 3.606-2.496zM16.527 17.012c-0.015 0.005-0.031 0.009-0.046 0.015-4.074 1.418-5.405 4.276-5.419 4.308 1.172 0.91 2.643 1.46 4.244 1.46 0.956 0 1.867-0.194 2.696-0.546-0.102-0.602-0.503-2.714-1.475-5.236zM19.165 21.618c1.55-1.045 2.652-2.704 2.959-4.625-0.142-0.046-2.074-0.656-4.303-0.3 0.906 2.486 1.274 4.51 1.344 4.925zM16.792 14.248c0.16 0.329 0.316 0.663 0.459 1 0.051 0.121 0.101 0.239 0.149 0.357 2.372-0.298 4.709 0.203 4.809 0.224-0.016-1.634-0.601-3.135-1.57-4.309-0.013 0.018-1.121 1.616-3.847 2.728z"></path>
</symbol>
<symbol id="icon-spoiler" viewBox="0 0 52 32">
<path d="M48.64 7.299c0.002 0.618-0.113 1.228-0.335 1.786s-0.547 1.050-0.95 1.439l-20.844 19.966c-0.622 0.608-1.401 0.94-2.206 0.94s-1.584-0.332-2.206-0.94l-20.844-20.668c-0.709-0.702-1.156-1.71-1.24-2.803s0.199-2.181 0.789-3.026c0.59-0.844 1.437-1.375 2.356-1.476s1.833 0.237 2.543 0.938l18.62 18.478 18.62-17.858c0.51-0.505 1.131-0.827 1.79-0.925s1.327 0.029 1.926 0.368c0.599 0.339 1.104 0.876 1.456 1.546s0.534 1.446 0.526 2.236z"></path>
</symbol>
<symbol id="icon-twitter" viewBox="0 0 31 32">
<path fill="#fff" style="fill: var(--color1, #fff)" opacity="0.1" d="M0.396 15.911c0-8.373 6.788-15.161 15.161-15.161s15.161 6.788 15.161 15.161c0 8.373-6.788 15.161-15.161 15.161s-15.161-6.788-15.161-15.161z"></path>
<path fill="#fff" style="fill: var(--color1, #fff)" d="M15.102 13.073l0.032 0.525-0.53-0.064c-1.93-0.246-3.616-1.081-5.048-2.484l-0.7-0.696-0.18 0.514c-0.382 1.146-0.138 2.355 0.658 3.169 0.424 0.45 0.329 0.514-0.403 0.246-0.255-0.086-0.477-0.15-0.498-0.118-0.074 0.075 0.18 1.049 0.382 1.435 0.276 0.535 0.838 1.060 1.453 1.37l0.52 0.246-0.615 0.011c-0.594 0-0.615 0.011-0.551 0.236 0.212 0.696 1.050 1.435 1.983 1.756l0.658 0.225-0.573 0.343c-0.848 0.492-1.845 0.771-2.842 0.792-0.477 0.011-0.87 0.053-0.87 0.086 0 0.107 1.294 0.707 2.047 0.942 2.259 0.696 4.942 0.396 6.957-0.792 1.432-0.846 2.863-2.527 3.531-4.154 0.36-0.867 0.721-2.452 0.721-3.212 0-0.492 0.032-0.557 0.626-1.146 0.35-0.343 0.679-0.717 0.742-0.824 0.106-0.203 0.095-0.203-0.445-0.021-0.901 0.321-1.029 0.278-0.583-0.203 0.329-0.343 0.721-0.964 0.721-1.146 0-0.032-0.159 0.021-0.339 0.118-0.191 0.107-0.615 0.268-0.933 0.364l-0.573 0.182-0.52-0.353c-0.286-0.193-0.689-0.407-0.901-0.471-0.541-0.15-1.368-0.128-1.856 0.043-1.326 0.482-2.163 1.724-2.068 3.083z"></path>
</symbol>
<symbol id="icon-youtube" viewBox="0 0 32 32">
<path fill="#fff" style="fill: var(--color1, #fff)" opacity="0.1" d="M0.645 15.911c0-8.373 6.788-15.161 15.161-15.161s15.161 6.788 15.161 15.161c0 8.373-6.788 15.161-15.161 15.161s-15.161-6.788-15.161-15.161z"></path>
<path fill="#fff" style="fill: var(--color1, #fff)" d="M22.124 10.699c0.696 0.191 1.244 0.754 1.43 1.468 0.338 1.295 0.338 3.997 0.338 3.997s0 2.702-0.338 3.997c-0.186 0.714-0.734 1.277-1.43 1.468-1.261 0.347-6.318 0.347-6.318 0.347s-5.057 0-6.318-0.347c-0.696-0.191-1.244-0.754-1.43-1.468-0.338-1.295-0.338-3.997-0.338-3.997s0-2.702 0.338-3.997c0.186-0.714 0.734-1.277 1.43-1.468 1.261-0.347 6.318-0.347 6.318-0.347s5.057 0 6.318 0.347zM14.29 13.889v5.053l4.043-2.527-4.043-2.527z"
></path>
</symbol>

    <symbol id="icon-Rectangle-333" viewBox="0 0 118 32">
        <path d="M10.899 4.499c-5.101 2.412-9.646 4.73-10.064 5.101-0.742 0.649-0.835 1.809-0.835 10.806 0 9.136 0.093 10.11 0.835 10.806 0.788 0.742 4.962 0.788 50.551 0.788h49.716l16.696-8.348v-11.27c0-8.162-0.139-11.409-0.557-11.826s-11.872-0.557-48.788-0.51l-48.278 0.046-9.275 4.406zM116.777 12.058l0.093 10.899-8.116 4.081-8.116 4.035h-49.299c-37.704 0-49.438-0.139-49.855-0.557-0.788-0.788-0.788-19.525 0.046-20.22 0.278-0.278 4.73-2.458 9.832-4.916l9.275-4.406 96 0.185 0.139 10.899z"></path>
    </symbol>


</defs>
</svg>
